<mxfile host="app.diagrams.net" modified="2023-08-04T03:15:59.718Z" agent="Mozilla/5.0 (Windows NT 10.0; Win64; x64) AppleWebKit/537.36 (KHTML, like Gecko) Chrome/115.0.0.0 Safari/537.36" etag="7gL_My9Wmd0n8nIo12u7" version="21.6.6" type="github">
  <diagram name="Page-1" id="kurx8eqdIyjX8LWGJ4XD">
    <mxGraphModel dx="830" dy="447" grid="1" gridSize="10" guides="1" tooltips="1" connect="1" arrows="1" fold="1" page="1" pageScale="1" pageWidth="827" pageHeight="1169" math="0" shadow="0">
      <root>
        <mxCell id="0" />
        <mxCell id="1" parent="0" />
        <mxCell id="cJLlT4LMB05umIlm8ekq-5" style="edgeStyle=orthogonalEdgeStyle;rounded=0;orthogonalLoop=1;jettySize=auto;html=1;entryX=0;entryY=0.5;entryDx=0;entryDy=0;" edge="1" parent="1" source="cJLlT4LMB05umIlm8ekq-1" target="cJLlT4LMB05umIlm8ekq-2">
          <mxGeometry relative="1" as="geometry">
            <mxPoint x="300" y="430" as="targetPoint" />
          </mxGeometry>
        </mxCell>
        <mxCell id="cJLlT4LMB05umIlm8ekq-1" value="pre" style="rounded=0;whiteSpace=wrap;html=1;" vertex="1" parent="1">
          <mxGeometry x="140" y="400" width="120" height="60" as="geometry" />
        </mxCell>
        <mxCell id="cJLlT4LMB05umIlm8ekq-7" style="edgeStyle=orthogonalEdgeStyle;rounded=0;orthogonalLoop=1;jettySize=auto;html=1;entryX=0;entryY=0.5;entryDx=0;entryDy=0;" edge="1" parent="1" source="cJLlT4LMB05umIlm8ekq-2" target="cJLlT4LMB05umIlm8ekq-4">
          <mxGeometry relative="1" as="geometry" />
        </mxCell>
        <mxCell id="cJLlT4LMB05umIlm8ekq-2" value="success" style="rounded=0;whiteSpace=wrap;html=1;" vertex="1" parent="1">
          <mxGeometry x="320" y="310" width="120" height="60" as="geometry" />
        </mxCell>
        <mxCell id="cJLlT4LMB05umIlm8ekq-8" style="edgeStyle=orthogonalEdgeStyle;rounded=0;orthogonalLoop=1;jettySize=auto;html=1;entryX=0;entryY=0.5;entryDx=0;entryDy=0;" edge="1" parent="1" source="cJLlT4LMB05umIlm8ekq-3" target="cJLlT4LMB05umIlm8ekq-4">
          <mxGeometry relative="1" as="geometry" />
        </mxCell>
        <mxCell id="cJLlT4LMB05umIlm8ekq-3" value="fail" style="rounded=0;whiteSpace=wrap;html=1;" vertex="1" parent="1">
          <mxGeometry x="320" y="490" width="120" height="60" as="geometry" />
        </mxCell>
        <mxCell id="cJLlT4LMB05umIlm8ekq-4" value="complete" style="rounded=0;whiteSpace=wrap;html=1;" vertex="1" parent="1">
          <mxGeometry x="510" y="400" width="120" height="60" as="geometry" />
        </mxCell>
        <mxCell id="cJLlT4LMB05umIlm8ekq-6" style="edgeStyle=orthogonalEdgeStyle;rounded=0;orthogonalLoop=1;jettySize=auto;html=1;" edge="1" parent="1" target="cJLlT4LMB05umIlm8ekq-3">
          <mxGeometry relative="1" as="geometry">
            <mxPoint x="330.5" y="530" as="targetPoint" />
            <mxPoint x="270" y="430" as="sourcePoint" />
            <Array as="points">
              <mxPoint x="290" y="430" />
              <mxPoint x="290" y="520" />
            </Array>
          </mxGeometry>
        </mxCell>
      </root>
    </mxGraphModel>
  </diagram>
</mxfile>
